<svg xmlns="http://www.w3.org/2000/svg" width="19" height="19" viewBox="0 0 19 19"><g><g><path fill="#b99403" d="M13.958 1.578a2.438 2.438 0 0 0 0 3.454 2.45 2.45 0 0 0 3.46 0l1.4-1.398c.107.402.182.815.182 1.25a4.888 4.888 0 0 1-4.893 4.883c-.441 0-.86-.077-1.267-.186-.014.014-.018.034-.032.048l-8.65 8.632a2.45 2.45 0 0 1-3.46 0 2.438 2.438 0 0 1 0-3.453l8.65-8.633c.015-.014.035-.018.05-.033a4.826 4.826 0 0 1-.185-1.259A4.888 4.888 0 0 1 14.107 0c.435 0 .85.075 1.251.181zM2.485 15.871a.611.611 0 1 0-.001 1.222.611.611 0 0 0 0-1.222z"/></g></g></svg>